<svg width="559" height="646" viewBox="0 0 559 646" fill="none" xmlns="http://www.w3.org/2000/svg">
<g opacity="0.4" filter="url(#filter0_iiif_1_31)">
<path d="M445.557 287.968C451.182 308.98 468.66 339.462 460.538 419.037C449.396 528.211 347.461 549.952 276.243 549.953C207.625 549.953 105.696 537.118 97.5726 444.707C89.4487 352.296 116.23 311.081 121.855 287.968C131.572 252.247 141.16 225.982 150.62 209.172C160.081 192.362 169.413 185.008 178.618 187.109C273.619 168.32 300.977 171.88 390.328 190.261C400.045 190.261 409.633 198.665 419.093 215.475C428.554 232.285 437.375 256.449 445.557 287.968Z" fill="#303638"/>
</g>
<g opacity="0.4" filter="url(#filter1_f_1_31)">
<path d="M190.936 500.495C156.818 491.19 105.66 430.414 84.957 331.51L471.18 398.395C463.138 416.776 454.24 460.517 421.844 488.433C381.349 523.328 357.889 501.155 308.346 494.693C258.804 488.231 233.584 512.127 190.936 500.495Z" fill="black"/>
</g>
<g filter="url(#filter2_iii_1_31)">
<path d="M480.758 388.947C477.074 397.951 472.981 406.444 468.479 414.425C463.977 422.406 459.066 430.08 453.745 437.447C446.787 447.27 440.443 455.66 434.713 462.618C428.983 469.576 423.867 475.101 419.365 479.194C412.817 485.333 405.757 490.04 398.185 493.314C390.613 496.588 382.939 498.225 375.163 498.225C369.433 498.225 363.191 497.407 356.438 495.77C349.685 494.132 342.216 491.677 334.03 488.403C326.254 485.128 318.682 482.775 311.315 481.342C303.948 479.91 296.99 479.194 290.441 479.194C283.074 479.194 275.707 479.91 268.34 481.342C260.973 482.775 253.197 485.128 245.011 488.403C236.825 491.677 229.458 494.235 222.91 496.077C216.361 497.918 210.631 498.839 205.72 498.839C198.353 499.248 190.884 497.816 183.312 494.542C175.74 491.267 168.066 486.151 160.29 479.194C155.788 474.692 150.467 468.859 144.328 461.697C138.188 454.534 131.64 445.837 124.682 435.605C116.906 424.964 109.846 413.299 103.502 400.611C97.1579 387.924 91.3257 374.417 86.005 360.093C80.6843 344.54 76.6938 329.192 74.0335 314.048C71.3731 298.905 70.043 284.171 70.043 269.846C70.043 253.065 71.8847 237.513 75.5683 223.188C79.2518 208.863 84.7771 195.561 92.1442 183.283C97.8742 173.869 104.423 165.274 111.79 157.498C119.157 149.722 127.547 143.173 136.961 137.852C146.783 132.122 156.708 127.825 166.736 124.96C176.763 122.095 187.302 120.458 198.353 120.049C204.492 120.049 211.552 120.969 219.533 122.811C227.514 124.653 236.416 127.416 246.239 131.099C255.652 134.783 263.531 137.545 269.875 139.387C276.219 141.229 280.823 142.15 283.688 142.15C285.735 142.15 290.237 141.127 297.195 139.08C304.152 137.034 313.566 133.76 325.435 129.257C336.486 125.165 346.718 122.3 356.131 120.663C365.545 119.025 374.14 118.616 381.916 119.435C402.789 121.072 421.105 125.983 436.862 134.169C452.62 142.355 465.819 154.019 476.46 169.162C457.633 180.213 443.615 193.719 434.406 209.681C425.198 225.643 420.593 243.856 420.593 264.321C420.593 280.283 423.56 294.812 429.495 307.909C435.43 321.006 443.922 332.875 454.973 343.517C460.294 348.428 465.819 352.725 471.549 356.409C477.279 360.093 483.213 363.367 489.353 366.232C488.125 369.915 486.795 373.701 485.362 377.589C483.93 381.478 482.395 385.263 480.758 388.947Z" fill="url(#paint0_radial_1_31)"/>
</g>
<g opacity="0.5">
<mask id="mask0_1_31" style="mask-type:alpha" maskUnits="userSpaceOnUse" x="69" y="119" width="420" height="380">
<path d="M480.058 388.947C476.375 397.951 472.282 406.444 467.78 414.425C463.278 422.406 458.366 430.08 453.046 437.447C446.088 447.27 439.744 455.66 434.014 462.618C428.284 469.576 423.168 475.101 418.666 479.194C412.118 485.333 405.057 490.04 397.486 493.314C389.914 496.588 382.24 498.225 374.464 498.225C368.734 498.225 362.492 497.407 355.739 495.77C348.986 494.132 341.516 491.677 333.331 488.403C325.554 485.128 317.983 482.775 310.616 481.342C303.248 479.91 296.291 479.194 289.742 479.194C282.375 479.194 275.008 479.91 267.641 481.342C260.274 482.775 252.498 485.128 244.312 488.403C236.126 491.677 228.759 494.235 222.211 496.077C215.662 497.918 209.932 498.839 205.021 498.839C197.654 499.248 190.184 497.816 182.613 494.542C175.041 491.267 167.367 486.151 159.59 479.194C155.088 474.692 149.768 468.859 143.628 461.697C137.489 454.534 130.941 445.837 123.983 435.605C116.207 424.964 109.146 413.299 102.803 400.611C96.4587 387.924 90.6264 374.417 85.3058 360.093C79.9851 344.54 75.9946 329.192 73.3343 314.048C70.6739 298.905 69.3438 284.171 69.3438 269.846C69.3438 253.065 71.1855 237.513 74.8691 223.188C78.5526 208.863 84.0779 195.561 91.445 183.283C97.175 173.869 103.723 165.274 111.091 157.498C118.458 149.722 126.848 143.173 136.261 137.852C146.084 132.122 156.009 127.825 166.037 124.96C176.064 122.095 186.603 120.458 197.654 120.049C203.793 120.049 210.853 120.969 218.834 122.811C226.815 124.653 235.717 127.416 245.54 131.099C254.953 134.783 262.832 137.545 269.176 139.387C275.52 141.229 280.124 142.15 282.989 142.15C285.035 142.15 289.538 141.127 296.495 139.08C303.453 137.034 312.867 133.76 324.736 129.257C335.786 125.165 346.018 122.3 355.432 120.663C364.846 119.025 373.44 118.616 381.217 119.435C402.09 121.072 420.405 125.983 436.163 134.169C451.92 142.355 465.12 154.019 475.761 169.162C456.934 180.213 442.916 193.719 433.707 209.681C424.498 225.643 419.894 243.856 419.894 264.321C419.894 280.283 422.861 294.812 428.796 307.909C434.73 321.006 443.223 332.875 454.274 343.517C459.594 348.428 465.12 352.725 470.85 356.409C476.58 360.093 482.514 363.367 488.653 366.232C487.425 369.915 486.095 373.701 484.663 377.589C483.23 381.478 481.696 385.263 480.058 388.947Z" fill="#303638"/>
</mask>
<g mask="url(#mask0_1_31)">
<g opacity="0.6" filter="url(#filter3_d_1_31)">
<path d="M234.545 142.177C224.495 131.542 199.194 120.024 176.049 122.545C140.307 114.285 243.635 103.782 286.254 103.782C328.874 103.782 387.243 117.304 369.07 119.161C351.346 120.972 338.269 127.191 324.368 144.231C310.466 161.271 295.789 175.737 279.645 175.737C263.502 175.737 250.869 159.451 234.545 142.177Z" fill="url(#paint1_linear_1_31)"/>
</g>
<g opacity="0.7" filter="url(#filter4_i_1_31)">
<circle cx="465.165" cy="268.814" r="100.267" fill="url(#paint2_linear_1_31)"/>
</g>
</g>
</g>
<mask id="mask1_1_31" style="mask-type:alpha" maskUnits="userSpaceOnUse" x="280" y="0" width="105" height="120">
<path d="M384.985 11.384C384.985 23.6625 382.631 35.6339 377.925 47.2985C373.218 58.9631 366.362 70.1159 357.358 80.7573C346.308 93.4451 334.336 103.268 321.444 110.226C308.551 117.183 294.943 120.048 280.618 118.821C280.209 117.183 280.004 115.649 280.004 114.216C280.004 112.784 280.004 111.249 280.004 109.612C280.004 97.3332 282.46 85.0548 287.371 72.7763C292.282 60.4978 299.445 49.2426 308.858 39.0105C313.36 33.6898 318.579 28.7785 324.513 24.2763C330.448 19.7742 336.894 15.8861 343.852 12.6118C351.219 8.92825 358.177 6.16562 364.725 4.32384C371.274 2.48207 377.822 1.35655 384.371 0.947266C384.371 2.5844 384.473 4.32384 384.678 6.16561C384.882 8.00739 384.985 9.74682 384.985 11.384Z" fill="#303638"/>
</mask>
<g mask="url(#mask1_1_31)">
<g filter="url(#filter5_iii_1_31)">
<path d="M384.985 11.384C384.985 23.6625 382.631 35.6339 377.925 47.2985C373.218 58.9631 366.362 70.1159 357.358 80.7573C346.308 93.4451 334.336 103.268 321.444 110.226C308.551 117.183 294.943 120.048 280.618 118.821C280.209 117.183 280.004 115.649 280.004 114.216C280.004 112.784 280.004 111.249 280.004 109.612C280.004 97.3332 282.46 85.0548 287.371 72.7763C292.282 60.4978 299.445 49.2426 308.858 39.0105C313.36 33.6898 318.579 28.7785 324.513 24.2763C330.448 19.7742 336.894 15.8861 343.852 12.6118C351.219 8.92825 358.177 6.16562 364.725 4.32384C371.274 2.48207 377.822 1.35655 384.371 0.947266C384.371 2.5844 384.473 4.32384 384.678 6.16561C384.882 8.00739 384.985 9.74682 384.985 11.384Z" fill="#303638"/>
</g>
<path opacity="0.5" d="M424.625 37.4202C424.625 56.1991 421.025 74.5083 413.827 92.3483C406.628 110.188 396.143 127.246 382.372 143.521C365.471 162.926 347.162 177.949 327.444 188.59C307.726 199.231 286.913 203.613 265.004 201.735C264.378 199.231 264.065 196.884 264.065 194.693C264.065 192.502 264.065 190.155 264.065 187.651C264.065 168.872 267.821 150.093 275.333 131.314C282.844 112.536 293.798 95.3217 308.196 79.6726C315.081 71.535 323.062 64.0236 332.139 57.138C341.215 50.2523 351.074 44.3058 361.715 39.298C372.983 33.6644 383.624 29.4392 393.639 26.6223C403.655 23.8055 413.67 22.0841 423.686 21.4581C423.686 23.962 423.842 26.6223 424.155 29.4391C424.468 32.256 424.625 34.9163 424.625 37.4202Z" fill="url(#paint3_linear_1_31)"/>
<g opacity="0.2">
<g filter="url(#filter6_f_1_31)">
<path d="M322.061 65.3169C302.777 78.7323 278.194 116.657 274.941 126.135H284.663C294.075 100.556 312.236 74.4492 322.061 65.3169Z" fill="white"/>
</g>
<g filter="url(#filter7_f_1_31)">
<path d="M322.061 65.3169C302.777 78.7323 278.194 116.657 274.941 126.135H284.663C294.075 100.556 312.236 74.4492 322.061 65.3169Z" fill="white"/>
</g>
</g>
</g>
<g opacity="0.15">
<g filter="url(#filter8_f_1_31)">
<path d="M401.736 344.776C380.037 324.146 372.316 306.983 370.613 299.646C393.069 339.885 411.962 350.779 441.085 361.45C464.384 369.987 484.585 366.341 491.773 363.451L489.772 368.119C474.21 377.901 428.859 370.565 401.736 344.776Z" fill="white"/>
</g>
<g opacity="0.5" filter="url(#filter9_f_1_31)">
<path d="M401.736 344.776C380.037 324.146 372.316 306.983 370.613 299.646C393.069 339.885 411.962 350.779 441.085 361.45C464.384 369.987 484.585 366.341 491.773 363.451L489.772 368.119C474.21 377.901 428.859 370.565 401.736 344.776Z" fill="white"/>
</g>
</g>
<g opacity="0.6" filter="url(#filter10_f_1_31)">
<path d="M233.764 465.67C282.097 424.666 282.283 346.129 288.531 264.949C293.116 341.933 296.658 429.08 344.163 470.202C345.764 471.43 347.363 472.723 348.96 474.082C347.313 472.839 345.715 471.545 344.163 470.202C301.891 437.779 258.367 450.331 233.764 465.67C233.414 465.967 233.062 466.261 232.708 466.553C231.756 467.339 231.545 467.085 232.582 466.418C232.971 466.168 233.365 465.919 233.764 465.67Z" fill="url(#paint4_linear_1_31)"/>
</g>
<defs>
<filter id="filter0_iiif_1_31" x="0.0507812" y="78.6334" width="558.604" height="567.319" filterUnits="userSpaceOnUse" color-interpolation-filters="sRGB">
<feFlood flood-opacity="0" result="BackgroundImageFix"/>
<feBlend mode="normal" in="SourceGraphic" in2="BackgroundImageFix" result="shape"/>
<feColorMatrix in="SourceAlpha" type="matrix" values="0 0 0 0 0 0 0 0 0 0 0 0 0 0 0 0 0 0 127 0" result="hardAlpha"/>
<feOffset dy="4"/>
<feGaussianBlur stdDeviation="56"/>
<feComposite in2="hardAlpha" operator="arithmetic" k2="-1" k3="1"/>
<feColorMatrix type="matrix" values="0 0 0 0 0 0 0 0 0 0 0 0 0 0 0 0 0 0 0.54 0"/>
<feBlend mode="normal" in2="shape" result="effect1_innerShadow_1_31"/>
<feColorMatrix in="SourceAlpha" type="matrix" values="0 0 0 0 0 0 0 0 0 0 0 0 0 0 0 0 0 0 127 0" result="hardAlpha"/>
<feOffset dy="14"/>
<feGaussianBlur stdDeviation="20"/>
<feComposite in2="hardAlpha" operator="arithmetic" k2="-1" k3="1"/>
<feColorMatrix type="matrix" values="0 0 0 0 0.366667 0 0 0 0 0.391667 0 0 0 0 0.4 0 0 0 1 0"/>
<feBlend mode="normal" in2="effect1_innerShadow_1_31" result="effect2_innerShadow_1_31"/>
<feColorMatrix in="SourceAlpha" type="matrix" values="0 0 0 0 0 0 0 0 0 0 0 0 0 0 0 0 0 0 127 0" result="hardAlpha"/>
<feOffset dy="6"/>
<feGaussianBlur stdDeviation="11"/>
<feComposite in2="hardAlpha" operator="arithmetic" k2="-1" k3="1"/>
<feColorMatrix type="matrix" values="0 0 0 0 0.366667 0 0 0 0 0.391667 0 0 0 0 0.4 0 0 0 1 0"/>
<feBlend mode="normal" in2="effect2_innerShadow_1_31" result="effect3_innerShadow_1_31"/>
<feGaussianBlur stdDeviation="48" result="effect4_foregroundBlur_1_31"/>
</filter>
<filter id="filter1_f_1_31" x="49.957" y="296.51" width="456.223" height="246.084" filterUnits="userSpaceOnUse" color-interpolation-filters="sRGB">
<feFlood flood-opacity="0" result="BackgroundImageFix"/>
<feBlend mode="normal" in="SourceGraphic" in2="BackgroundImageFix" result="shape"/>
<feGaussianBlur stdDeviation="17.5" result="effect1_foregroundBlur_1_31"/>
</filter>
<filter id="filter2_iii_1_31" x="70.043" y="119.025" width="419.31" height="417.882" filterUnits="userSpaceOnUse" color-interpolation-filters="sRGB">
<feFlood flood-opacity="0" result="BackgroundImageFix"/>
<feBlend mode="normal" in="SourceGraphic" in2="BackgroundImageFix" result="shape"/>
<feColorMatrix in="SourceAlpha" type="matrix" values="0 0 0 0 0 0 0 0 0 0 0 0 0 0 0 0 0 0 127 0" result="hardAlpha"/>
<feOffset dy="4"/>
<feGaussianBlur stdDeviation="56"/>
<feComposite in2="hardAlpha" operator="arithmetic" k2="-1" k3="1"/>
<feColorMatrix type="matrix" values="0 0 0 0 0 0 0 0 0 0 0 0 0 0 0 0 0 0 0.54 0"/>
<feBlend mode="normal" in2="shape" result="effect1_innerShadow_1_31"/>
<feColorMatrix in="SourceAlpha" type="matrix" values="0 0 0 0 0 0 0 0 0 0 0 0 0 0 0 0 0 0 127 0" result="hardAlpha"/>
<feOffset dy="38"/>
<feGaussianBlur stdDeviation="36"/>
<feComposite in2="hardAlpha" operator="arithmetic" k2="-1" k3="1"/>
<feColorMatrix type="matrix" values="0 0 0 0 0.366667 0 0 0 0 0.391667 0 0 0 0 0.4 0 0 0 1 0"/>
<feBlend mode="normal" in2="effect1_innerShadow_1_31" result="effect2_innerShadow_1_31"/>
<feColorMatrix in="SourceAlpha" type="matrix" values="0 0 0 0 0 0 0 0 0 0 0 0 0 0 0 0 0 0 127 0" result="hardAlpha"/>
<feOffset dy="6"/>
<feGaussianBlur stdDeviation="11"/>
<feComposite in2="hardAlpha" operator="arithmetic" k2="-1" k3="1"/>
<feColorMatrix type="matrix" values="0 0 0 0 0.187292 0 0 0 0 0.240573 0 0 0 0 0.258333 0 0 0 0.54 0"/>
<feBlend mode="normal" in2="effect2_innerShadow_1_31" result="effect3_innerShadow_1_31"/>
</filter>
<filter id="filter3_d_1_31" x="150.663" y="102.782" width="221.817" height="87.9548" filterUnits="userSpaceOnUse" color-interpolation-filters="sRGB">
<feFlood flood-opacity="0" result="BackgroundImageFix"/>
<feColorMatrix in="SourceAlpha" type="matrix" values="0 0 0 0 0 0 0 0 0 0 0 0 0 0 0 0 0 0 127 0" result="hardAlpha"/>
<feOffset dx="-10" dy="7"/>
<feGaussianBlur stdDeviation="4"/>
<feColorMatrix type="matrix" values="0 0 0 0 0.439375 0 0 0 0 0.452589 0 0 0 0 0.4625 0 0 0 0.45 0"/>
<feBlend mode="normal" in2="BackgroundImageFix" result="effect1_dropShadow_1_31"/>
<feBlend mode="normal" in="SourceGraphic" in2="effect1_dropShadow_1_31" result="shape"/>
</filter>
<filter id="filter4_i_1_31" x="364.898" y="168.547" width="209.535" height="209.535" filterUnits="userSpaceOnUse" color-interpolation-filters="sRGB">
<feFlood flood-opacity="0" result="BackgroundImageFix"/>
<feBlend mode="normal" in="SourceGraphic" in2="BackgroundImageFix" result="shape"/>
<feColorMatrix in="SourceAlpha" type="matrix" values="0 0 0 0 0 0 0 0 0 0 0 0 0 0 0 0 0 0 127 0" result="hardAlpha"/>
<feOffset dx="25" dy="36"/>
<feGaussianBlur stdDeviation="4.5"/>
<feComposite in2="hardAlpha" operator="arithmetic" k2="-1" k3="1"/>
<feColorMatrix type="matrix" values="0 0 0 0 0 0 0 0 0 0 0 0 0 0 0 0 0 0 0.13 0"/>
<feBlend mode="normal" in2="shape" result="effect1_innerShadow_1_31"/>
</filter>
<filter id="filter5_iii_1_31" x="280.004" y="0.947266" width="104.981" height="132.15" filterUnits="userSpaceOnUse" color-interpolation-filters="sRGB">
<feFlood flood-opacity="0" result="BackgroundImageFix"/>
<feBlend mode="normal" in="SourceGraphic" in2="BackgroundImageFix" result="shape"/>
<feColorMatrix in="SourceAlpha" type="matrix" values="0 0 0 0 0 0 0 0 0 0 0 0 0 0 0 0 0 0 127 0" result="hardAlpha"/>
<feOffset dy="4"/>
<feGaussianBlur stdDeviation="56"/>
<feComposite in2="hardAlpha" operator="arithmetic" k2="-1" k3="1"/>
<feColorMatrix type="matrix" values="0 0 0 0 0 0 0 0 0 0 0 0 0 0 0 0 0 0 0.54 0"/>
<feBlend mode="normal" in2="shape" result="effect1_innerShadow_1_31"/>
<feColorMatrix in="SourceAlpha" type="matrix" values="0 0 0 0 0 0 0 0 0 0 0 0 0 0 0 0 0 0 127 0" result="hardAlpha"/>
<feOffset dy="14"/>
<feGaussianBlur stdDeviation="20"/>
<feComposite in2="hardAlpha" operator="arithmetic" k2="-1" k3="1"/>
<feColorMatrix type="matrix" values="0 0 0 0 0.366667 0 0 0 0 0.391667 0 0 0 0 0.4 0 0 0 1 0"/>
<feBlend mode="normal" in2="effect1_innerShadow_1_31" result="effect2_innerShadow_1_31"/>
<feColorMatrix in="SourceAlpha" type="matrix" values="0 0 0 0 0 0 0 0 0 0 0 0 0 0 0 0 0 0 127 0" result="hardAlpha"/>
<feOffset dy="6"/>
<feGaussianBlur stdDeviation="11"/>
<feComposite in2="hardAlpha" operator="arithmetic" k2="-1" k3="1"/>
<feColorMatrix type="matrix" values="0 0 0 0 0.366667 0 0 0 0 0.391667 0 0 0 0 0.4 0 0 0 1 0"/>
<feBlend mode="normal" in2="effect2_innerShadow_1_31" result="effect3_innerShadow_1_31"/>
</filter>
<filter id="filter6_f_1_31" x="258.941" y="49.3169" width="79.1195" height="92.818" filterUnits="userSpaceOnUse" color-interpolation-filters="sRGB">
<feFlood flood-opacity="0" result="BackgroundImageFix"/>
<feBlend mode="normal" in="SourceGraphic" in2="BackgroundImageFix" result="shape"/>
<feGaussianBlur stdDeviation="8" result="effect1_foregroundBlur_1_31"/>
</filter>
<filter id="filter7_f_1_31" x="267.941" y="58.3169" width="61.1195" height="74.818" filterUnits="userSpaceOnUse" color-interpolation-filters="sRGB">
<feFlood flood-opacity="0" result="BackgroundImageFix"/>
<feBlend mode="normal" in="SourceGraphic" in2="BackgroundImageFix" result="shape"/>
<feGaussianBlur stdDeviation="3.5" result="effect1_foregroundBlur_1_31"/>
</filter>
<filter id="filter8_f_1_31" x="354.613" y="283.646" width="153.16" height="104.635" filterUnits="userSpaceOnUse" color-interpolation-filters="sRGB">
<feFlood flood-opacity="0" result="BackgroundImageFix"/>
<feBlend mode="normal" in="SourceGraphic" in2="BackgroundImageFix" result="shape"/>
<feGaussianBlur stdDeviation="8" result="effect1_foregroundBlur_1_31"/>
</filter>
<filter id="filter9_f_1_31" x="367.613" y="296.646" width="127.16" height="78.6345" filterUnits="userSpaceOnUse" color-interpolation-filters="sRGB">
<feFlood flood-opacity="0" result="BackgroundImageFix"/>
<feBlend mode="normal" in="SourceGraphic" in2="BackgroundImageFix" result="shape"/>
<feGaussianBlur stdDeviation="1.5" result="effect1_foregroundBlur_1_31"/>
</filter>
<filter id="filter10_f_1_31" x="188.894" y="221.949" width="203.066" height="295.133" filterUnits="userSpaceOnUse" color-interpolation-filters="sRGB">
<feFlood flood-opacity="0" result="BackgroundImageFix"/>
<feBlend mode="normal" in="SourceGraphic" in2="BackgroundImageFix" result="shape"/>
<feGaussianBlur stdDeviation="21.5" result="effect1_foregroundBlur_1_31"/>
</filter>
<radialGradient id="paint0_radial_1_31" cx="0" cy="0" r="1" gradientUnits="userSpaceOnUse" gradientTransform="translate(157.948 184.13) rotate(42.5559) scale(259.207 286.11)">
<stop stop-color="#3C4143"/>
<stop offset="1" stop-color="#1D2022"/>
</radialGradient>
<linearGradient id="paint1_linear_1_31" x1="255.017" y1="134.623" x2="325.238" y2="153.147" gradientUnits="userSpaceOnUse">
<stop stop-color="#2A2E30"/>
<stop offset="1" stop-color="#1E2123" stop-opacity="0"/>
</linearGradient>
<linearGradient id="paint2_linear_1_31" x1="396.495" y1="227.106" x2="482.438" y2="307.994" gradientUnits="userSpaceOnUse">
<stop stop-color="#1A1E1F"/>
<stop offset="1" stop-color="#5D656A"/>
</linearGradient>
<linearGradient id="paint3_linear_1_31" x1="286.047" y1="113.781" x2="367.628" y2="51.1984" gradientUnits="userSpaceOnUse">
<stop stop-color="#0F1112"/>
<stop offset="1" stop-opacity="0"/>
</linearGradient>
<linearGradient id="paint4_linear_1_31" x1="285.638" y1="264.949" x2="285.638" y2="474.082" gradientUnits="userSpaceOnUse">
<stop stop-opacity="0.34"/>
<stop offset="1"/>
</linearGradient>
</defs>
</svg>
